<svg width="270" height="80" viewBox="0 0 270 80" fill="none" xmlns="http://www.w3.org/2000/svg">
<path d="M29 71.1803V47.7444L49.5548 35.7539L69.5826 47.7444V71.1803L49.5548 59.7348L29 71.1803Z" fill="#7FA8BC"/>
<path d="M29 47.7444L49.5548 35.7539L69.0556 47.7444L49.5548 59.7348L29 47.7444Z" fill="#4C85A1"/>
<path d="M49.5549 35.7539V59.7348L69.5827 47.7444L49.5549 35.7539Z" fill="#FEFEFE"/>
<path d="M49.5549 59.7351L69.5827 47.7446V71.1805L49.5549 59.7351Z" fill="#CBDCE4"/>
<path d="M96.989 8.50281V31.9387L76.4342 43.9292L56.4064 31.9387L56.4064 8.50281L76.4342 19.9483L96.989 8.50281Z" fill="#7FA8BC"/>
<path d="M96.989 31.9387L76.4342 43.9292L56.9334 31.9387L76.4342 19.9483L96.989 31.9387Z" fill="#4C85A1"/>
<path d="M76.4343 43.9292V19.9483L56.4065 31.9387L76.4343 43.9292Z" fill="#FEFEFE"/>
<path d="M76.4343 19.948L56.4065 31.9385V8.50256L76.4343 19.948Z" fill="#CBDCE4"/>
<path d="M168.119 47.1925L151.08 7H165.847L175.502 29.9135L185.347 7H198.41L181.371 47.1925H168.119Z" fill="white"/>
<path fill-rule="evenodd" clip-rule="evenodd" d="M202.542 7.33362V47.1925H215.746V37.4617L228.006 37.0875C236.117 34.4676 239.984 31.0693 240.455 22.8655C240.925 14.6617 234.736 10.5579 231.212 8.83056C225.615 6.0867 202.412 7.20489 202.542 7.33362ZM215.746 27.1695V17.8129H223.29L223.557 17.9363C227.571 19.79 227.405 25.5509 223.29 27.1695V27.1695H215.746Z" fill="white"/>
<path d="M119.903 7H106.756V47.1925H119.903V36.7237L122.532 33.7327L133.238 47.1925H148.826L132.486 24.7595L147.512 7H133.238L119.903 21.0206V7Z" fill="white"/>
<path d="M128.51 61.4663C119.991 61.4664 120.964 72.6497 128.51 72.5474C136.056 72.4451 137.03 61.4662 128.51 61.4663Z" stroke="white" stroke-width="0.834646"/>
<path d="M201.959 61.4663C193.44 61.4664 194.413 72.6497 201.959 72.5474C209.505 72.4451 210.479 61.4662 201.959 61.4663Z" stroke="white" stroke-width="0.834646"/>
<path d="M114.055 62.1068C114.055 62.1068 109.415 60.6657 107.481 62.1068C107.01 62.458 106.769 62.8521 106.673 63.2472C106.257 64.961 108.34 66.0389 109.986 66.6706C110.321 66.7992 110.675 66.9347 111.035 67.0731C112.976 67.8177 115.038 69.2823 114.055 71.114V71.114C112.895 73.2757 108.641 73.2756 106.708 71.114" stroke="white" stroke-width="0.834646"/>
<path d="M239.252 62.1068C239.252 62.1068 234.612 60.6657 232.678 62.1068C232.207 62.458 231.965 62.8521 231.87 63.2472C231.454 64.961 233.536 66.0389 235.183 66.6706C235.518 66.7992 235.871 66.9347 236.232 67.0731C238.173 67.8177 240.235 69.2823 239.252 71.114V71.114C238.092 73.2757 233.838 73.2756 231.905 71.114" stroke="white" stroke-width="0.834646"/>
<path d="M215.126 72.7352V61.8027L224.807 72.2306V61.4663" stroke="white" stroke-width="0.834646"/>
<path d="M141.677 61.4663V72.7352H149.422" stroke="white" stroke-width="0.834646"/>
<path d="M188.824 61.4663V72.7352M172.559 61.8185H177.458M182.357 61.8185H177.458M177.458 61.8185V72.7352" stroke="white" stroke-width="0.834646"/>
<path d="M156.701 61.4663C156.701 61.4663 156.701 68.5548 156.701 70.0089C156.701 70.7595 157.124 71.3073 157.68 71.7413C158.688 72.5285 160.024 72.7352 161.303 72.7352V72.7352C162.634 72.7352 164.087 72.5569 165.002 71.5912C165.38 71.1924 165.608 70.7053 165.608 70.0089C165.608 68.5548 165.608 61.4663 165.608 61.4663" stroke="white" stroke-width="0.834646"/>
</svg>
