<svg xmlns="http://www.w3.org/2000/svg" width="1745" height="545.5" viewBox="0 0 1745 545.5"><g id="Capa_2" data-name="Capa 2"><g id="Capa_1-2" data-name="Capa 1"><g opacity="0.5"><polygon points="233 105.1 233 3.4 321 54.2 409.1 105.1 321 155.9 233 206.7 233 105.1" fill="#fff"/></g><g opacity="0.3"><polygon points="321 257.5 233 206.7 321 155.9 409.1 105.1 409.1 206.7 409.1 308.4 321 257.5" fill="#fff"/></g><g opacity="0.8"><polygon points="585.1 105.1 585.1 3.4 497.1 54.2 409.1 105.1 497.1 155.9 585.1 206.7 585.1 105.1" fill="#fff"/></g><polygon points="497.1 257.5 585.1 206.7 497.1 155.9 409.1 105.1 409.1 206.7 409.1 308.4 497.1 257.5" fill="#fff"/><g opacity="0.8"><polygon points="352.1 439.7 352.1 541.4 264.1 490.5 176.1 439.7 264.1 388.9 352.1 338.1 352.1 439.7" fill="#fff"/></g><polygon points="264.1 287.2 352.1 338.1 264.1 388.9 176.1 439.7 176.1 338.1 176.1 236.4 264.1 287.2" fill="#fff"/><g opacity="0.5"><polygon points="0 439.7 0 541.4 88 490.5 176.1 439.7 88 388.9 0 338.1 0 439.7" fill="#fff"/></g><g opacity="0.3"><polygon points="88 287.2 0 338.1 88 388.9 176.1 439.7 176.1 338.1 176.1 236.4 88 287.2" fill="#fff"/></g><path d="M785.5,222.6l-25.2,28.1V333H649.9V0H760.3V120.8L869.7,0H991.9L858.7,146.5,998.6,333H868.7Z" fill="#fff"/><path d="M1406.4,0,1265.6,333H1155.2L1014.4,0h120.8l79.5,194.6L1296,0Z" fill="#fff"/><path d="M1673.6,15.2C1696.5,25.4,1714,40,1726.4,59s18.6,41.2,18.6,66.6-6.2,47.6-18.6,66.6-29.9,33.6-52.8,43.8-49.6,15.2-80.4,15.2h-48V333H1432.9V0h160.3Q1639.4,0,1673.6,15.2Zm-53.3,139.2c7.7-6.9,11.5-16.4,11.5-28.8s-3.8-22-11.5-28.8-19-10.2-34.2-10.2h-40.9v78h40.9Q1608.9,164.6,1620.3,154.4Z" fill="#fff"/><path d="M669.7,541.6c-6.7-2.5-11.9-5.8-15.6-9.8l3.3-5.5a38.3,38.3,0,0,0,14.3,9.1,51.3,51.3,0,0,0,19,3.6c9.7,0,16.9-1.8,21.8-5.5s7.4-8.4,7.4-14.3-1.3-8.1-3.9-10.8a24.9,24.9,0,0,0-9.7-6.2,111.6,111.6,0,0,0-15.6-4.5,152.7,152.7,0,0,1-17.8-5.4,27.8,27.8,0,0,1-11.4-8c-3.1-3.6-4.7-8.4-4.7-14.5a24.7,24.7,0,0,1,3.9-13.5c2.6-4.1,6.6-7.3,11.9-9.8s12-3.6,20-3.6a57.9,57.9,0,0,1,16.5,2.5,47.7,47.7,0,0,1,14,6.6l-2.8,6a48.1,48.1,0,0,0-13.3-6.4,52.5,52.5,0,0,0-14.4-2.2c-9.3,0-16.4,1.9-21.2,5.7a17.6,17.6,0,0,0-7.2,14.6q0,6.8,3.9,10.8a25.3,25.3,0,0,0,9.6,6.2,150.5,150.5,0,0,0,15.8,4.6,128.8,128.8,0,0,1,17.7,5.4,28.4,28.4,0,0,1,11.4,7.8c3.1,3.6,4.7,8.3,4.7,14.3a23.7,23.7,0,0,1-4,13.4c-2.6,4-6.7,7.3-12.2,9.7s-12.2,3.6-20.2,3.6A58.2,58.2,0,0,1,669.7,541.6Z" fill="#fff"/><path d="M797.2,538.8a50.1,50.1,0,0,1-18.9-18.5,53.5,53.5,0,0,1,0-52.2,49.1,49.1,0,0,1,18.9-18.4,53.7,53.7,0,0,1,26.8-6.8,55,55,0,0,1,26.9,6.7,48,48,0,0,1,18.8,18.3,53.6,53.6,0,0,1,0,52.6,48,48,0,0,1-18.8,18.3,54,54,0,0,1-26.9,6.7A54.6,54.6,0,0,1,797.2,538.8Zm49.8-5.9A43.4,43.4,0,0,0,863.2,517a46.8,46.8,0,0,0,0-45.5,43.6,43.6,0,0,0-16.2-16,46.5,46.5,0,0,0-23-5.8,47,47,0,0,0-23,5.8,42.2,42.2,0,0,0-16.2,16,46.1,46.1,0,0,0,0,45.5A42,42,0,0,0,801,532.9a46,46,0,0,0,23,5.8A45.4,45.4,0,0,0,847,532.9Z" fill="#fff"/><path d="M931,443.7h7.4v94.4h58.2v6.7H931Z" fill="#fff"/><path d="M1052.1,534.4c-7-7.5-10.6-18.3-10.6-32.5V443.7h7.4v57.9c0,12.4,2.8,21.7,8.5,27.8s13.9,9.3,24.7,9.3,18.9-3.1,24.6-9.3,8.5-15.4,8.5-27.8V443.7h7.3v58.2c0,14.2-3.5,25-10.6,32.5s-17.1,11.1-29.9,11.1S1059.2,541.8,1052.1,534.4Z" fill="#fff"/><path d="M1203.1,450.3h-36.4v-6.6h80.2v6.6h-36.4v94.5h-7.4Z" fill="#fff"/><path d="M1294,443.7h7.3V544.8H1294Z" fill="#fff"/><path d="M1381.5,538.8a50.1,50.1,0,0,1-18.9-18.5,53.5,53.5,0,0,1,0-52.2,49.1,49.1,0,0,1,18.9-18.4,53.7,53.7,0,0,1,26.8-6.8,54.8,54.8,0,0,1,26.9,6.7,48.9,48.9,0,0,1,18.9,18.3,54.3,54.3,0,0,1,0,52.6,48.9,48.9,0,0,1-18.9,18.3,53.7,53.7,0,0,1-26.9,6.7A54.6,54.6,0,0,1,1381.5,538.8Zm49.8-5.9a43.4,43.4,0,0,0,16.2-15.9,46.8,46.8,0,0,0,0-45.5,43.6,43.6,0,0,0-16.2-16,46.5,46.5,0,0,0-23-5.8,47,47,0,0,0-23,5.8,42.2,42.2,0,0,0-16.2,16,46.1,46.1,0,0,0,0,45.5,42,42,0,0,0,16.2,15.9,46,46,0,0,0,23,5.8A45.4,45.4,0,0,0,1431.3,532.9Z" fill="#fff"/><path d="M1597.7,443.7V544.8h-6.1l-68.9-87.9v87.9h-7.3V443.7h6.2l68.7,87.8V443.7Z" fill="#fff"/><path d="M1667.2,541.6c-6.7-2.5-11.9-5.8-15.7-9.8l3.4-5.5a38.3,38.3,0,0,0,14.3,9.1,50.9,50.9,0,0,0,19,3.6c9.6,0,16.9-1.8,21.8-5.5s7.4-8.4,7.4-14.3-1.3-8.1-3.9-10.8a24.9,24.9,0,0,0-9.7-6.2,111.6,111.6,0,0,0-15.6-4.5,152.7,152.7,0,0,1-17.8-5.4,27.8,27.8,0,0,1-11.4-8c-3.2-3.6-4.7-8.4-4.7-14.5a24.7,24.7,0,0,1,3.9-13.5c2.6-4.1,6.6-7.3,11.9-9.8s12-3.6,20-3.6a57.9,57.9,0,0,1,16.5,2.5,47.7,47.7,0,0,1,14,6.6l-2.8,6a48.1,48.1,0,0,0-13.3-6.4,52.5,52.5,0,0,0-14.4-2.2c-9.3,0-16.4,1.9-21.2,5.7a17.7,17.7,0,0,0-7.3,14.6q0,6.8,3.9,10.8a25.7,25.7,0,0,0,9.7,6.2,150.5,150.5,0,0,0,15.8,4.6,128.8,128.8,0,0,1,17.7,5.4,29.1,29.1,0,0,1,11.4,7.8c3.1,3.6,4.7,8.3,4.7,14.3a24.5,24.5,0,0,1-4,13.4,27.5,27.5,0,0,1-12.2,9.7c-5.5,2.4-12.2,3.6-20.2,3.6A57.8,57.8,0,0,1,1667.2,541.6Z" fill="#fff"/></g></g></svg>