<svg width="80" height="124" viewBox="0 0 80 124" fill="none" xmlns="http://www.w3.org/2000/svg">
<path d="M8 91.0004V68.9395L27.3488 57.6526L46.2015 68.9395V91.0004L27.3488 80.2265L8 91.0004Z" fill="#7FA8BC"/>
<path d="M8 68.9395L27.3488 57.6526L45.7054 68.9395L27.3488 80.2265L8 68.9395Z" fill="#4C85A1"/>
<path d="M27.3489 57.6526V80.2265L46.2016 68.9395L27.3489 57.6526Z" fill="#FEFEFE"/>
<path d="M27.3489 80.2264L46.2016 68.9395V91.0003L27.3489 80.2264Z" fill="#CBDCE4"/>
<path d="M72 32.0001V54.0609L52.6512 65.3479L33.7985 54.0609L33.7985 32.0001L52.6512 42.774L72 32.0001Z" fill="#7FA8BC"/>
<path d="M72 54.0609L52.6512 65.3479L34.2946 54.0609L52.6512 42.774L72 54.0609Z" fill="#4C85A1"/>
<path d="M52.6511 65.3479V42.774L33.7984 54.0609L52.6511 65.3479Z" fill="#FEFEFE"/>
<path d="M52.6511 42.7741L33.7984 54.061V32.0002L52.6511 42.7741Z" fill="#CBDCE4"/>
</svg>
