<svg xmlns="http://www.w3.org/2000/svg" width="1745" height="541.4" viewBox="0 0 1745 541.4"><g id="Capa_2" data-name="Capa 2"><g id="Capa_1-2" data-name="Capa 1"><polygon points="233 105.1 233 3.4 321 54.2 409.1 105.1 321 155.9 233 206.7 233 105.1" fill="#e5c577"/><polygon points="321 257.5 233 206.7 321 155.9 409.1 105.1 409.1 206.7 409.1 308.4 321 257.5" fill="#e6af01"/><polygon points="585.1 105.1 585.1 3.4 497.1 54.2 409.1 105.1 497.1 155.9 585.1 206.7 585.1 105.1" fill="#eaa360"/><polygon points="497.1 257.5 585.1 206.7 497.1 155.9 409.1 105.1 409.1 206.7 409.1 308.4 497.1 257.5" fill="#db7e00"/><polygon points="352.1 439.7 352.1 541.4 264.1 490.5 176.1 439.7 264.1 388.9 352.1 338.1 352.1 439.7" fill="#aad2e8"/><polygon points="264.1 287.2 352.1 338.1 264.1 388.9 176.1 439.7 176.1 338.1 176.1 236.4 264.1 287.2" fill="#4693cc"/><polygon points="0 439.7 0 541.4 88 490.5 176.1 439.7 88 388.9 0 338.1 0 439.7" fill="#015f7b"/><polygon points="88 287.2 0 338.1 88 388.9 176.1 439.7 176.1 338.1 176.1 236.4 88 287.2" fill="#094e65"/><path d="M785.5,222.6l-25.2,28.1V333H649.9V0H760.3V120.8L869.7,0H991.9L858.7,146.5,998.6,333H868.7Z" fill="#094e65"/><path d="M1406.4,0,1265.6,333H1155.2L1014.4,0h120.8l79.5,194.6L1296,0Z" fill="#094e65"/><path d="M1673.6,15.2C1696.5,25.4,1714,40,1726.4,59s18.6,41.2,18.6,66.6-6.2,47.6-18.6,66.6-29.9,33.6-52.8,43.8-49.6,15.2-80.4,15.2h-48V333H1432.9V0h160.3Q1639.4,0,1673.6,15.2Zm-53.3,139.2c7.7-6.9,11.5-16.4,11.5-28.8s-3.8-22-11.5-28.8-19-10.2-34.2-10.2h-40.9v78h40.9Q1608.9,164.6,1620.3,154.4Z" fill="#094e65"/><path d="M663.2,536.4c-6.7-2.6-11.9-5.9-15.7-9.9l3.3-5.5a39.6,39.6,0,0,0,14.4,9.1,50.9,50.9,0,0,0,19,3.6c9.6,0,16.9-1.8,21.8-5.5s7.4-8.4,7.4-14.3-1.3-8.1-3.9-10.8a24.9,24.9,0,0,0-9.7-6.2,111.6,111.6,0,0,0-15.6-4.5,130.8,130.8,0,0,1-17.8-5.4,27.8,27.8,0,0,1-11.4-8c-3.2-3.6-4.7-8.4-4.7-14.5a24.7,24.7,0,0,1,3.9-13.5c2.6-4.1,6.5-7.3,11.9-9.7s12-3.7,20-3.7a57.9,57.9,0,0,1,16.5,2.5,51.8,51.8,0,0,1,14,6.6l-2.8,6a48.1,48.1,0,0,0-13.3-6.4,52.5,52.5,0,0,0-14.4-2.2c-9.4,0-16.4,1.9-21.2,5.7a17.4,17.4,0,0,0-7.3,14.6q0,6.8,3.9,10.8a25.7,25.7,0,0,0,9.7,6.2A150.5,150.5,0,0,0,687,486a144.5,144.5,0,0,1,17.7,5.4,29.8,29.8,0,0,1,11.4,7.8c3.1,3.6,4.6,8.3,4.6,14.3a24.1,24.1,0,0,1-3.9,13.4,27.5,27.5,0,0,1-12.2,9.7c-5.5,2.4-12.3,3.6-20.2,3.6A59.9,59.9,0,0,1,663.2,536.4Z" fill="#e19544"/><path d="M790.6,533.5a49.6,49.6,0,0,1-18.8-18.4,53,53,0,0,1,0-52.3,48.9,48.9,0,0,1,18.8-18.4,54,54,0,0,1,26.9-6.8,55,55,0,0,1,26.9,6.7,48.6,48.6,0,0,1,18.8,18.3,53.6,53.6,0,0,1,0,52.6,48.6,48.6,0,0,1-18.8,18.3,54,54,0,0,1-26.9,6.7A55,55,0,0,1,790.6,533.5Zm49.9-5.9a42.4,42.4,0,0,0,16.1-15.9,46.1,46.1,0,0,0,0-45.5,42.6,42.6,0,0,0-16.1-16,48.5,48.5,0,0,0-46,0,43.2,43.2,0,0,0-16.3,16,46.8,46.8,0,0,0,0,45.5,42.9,42.9,0,0,0,16.3,15.9,48.5,48.5,0,0,0,46,0Z" fill="#e19544"/><path d="M924.5,438.4h7.4v94.4h58.2v6.7H924.5Z" fill="#e19544"/><path d="M1045.6,529.1c-7.1-7.4-10.6-18.3-10.6-32.5V438.4h7.4v57.9c0,12.4,2.8,21.7,8.5,27.9s13.9,9.2,24.7,9.2,18.8-3.1,24.5-9.2,8.5-15.5,8.5-27.9V438.4h7.4v58.2c0,14.2-3.5,25.1-10.7,32.5s-17.1,11.1-29.9,11.1S1052.7,536.5,1045.6,529.1Z" fill="#e19544"/><path d="M1196.6,445h-36.4v-6.6h80.2V445H1204v94.5h-7.4Z" fill="#e19544"/><path d="M1287.4,438.4h7.4V539.5h-7.4Z" fill="#e19544"/><path d="M1374.9,533.5a51.9,51.9,0,0,1-18.8-70.7,49.6,49.6,0,0,1,18.8-18.4,54,54,0,0,1,26.9-6.8,55,55,0,0,1,26.9,6.7,48.6,48.6,0,0,1,18.8,18.3,53.6,53.6,0,0,1,0,52.6,48.6,48.6,0,0,1-18.8,18.3,54,54,0,0,1-26.9,6.7A55,55,0,0,1,1374.9,533.5Zm49.9-5.9a42.4,42.4,0,0,0,16.1-15.9,46.1,46.1,0,0,0,0-45.5,42.6,42.6,0,0,0-16.1-16,48.5,48.5,0,0,0-46,0,43.2,43.2,0,0,0-16.3,16,46.8,46.8,0,0,0,0,45.5,42.9,42.9,0,0,0,16.3,15.9,48.5,48.5,0,0,0,46,0Z" fill="#e19544"/><path d="M1591.1,438.4V539.5h-6l-68.9-87.8v87.8h-7.4V438.4h6.2l68.8,87.8V438.4Z" fill="#e19544"/><path d="M1660.7,536.4c-6.7-2.6-11.9-5.9-15.7-9.9l3.3-5.5a39.6,39.6,0,0,0,14.4,9.1,50.6,50.6,0,0,0,19,3.6c9.6,0,16.9-1.8,21.8-5.5s7.4-8.4,7.4-14.3-1.3-8.1-3.9-10.8a25.7,25.7,0,0,0-9.7-6.2,120.5,120.5,0,0,0-15.6-4.5,137.6,137.6,0,0,1-17.9-5.4,29.2,29.2,0,0,1-11.4-8c-3.1-3.6-4.7-8.4-4.7-14.5a24.7,24.7,0,0,1,3.9-13.5c2.6-4.1,6.6-7.3,12-9.7s12-3.7,20-3.7a57.7,57.7,0,0,1,16.4,2.5,49.1,49.1,0,0,1,14,6.6l-2.7,6a48.7,48.7,0,0,0-13.4-6.4,51.2,51.2,0,0,0-14.3-2.2q-14.1,0-21.3,5.7a17.6,17.6,0,0,0-7.2,14.6q0,6.8,3.9,10.8a24.9,24.9,0,0,0,9.7,6.2,147.6,147.6,0,0,0,15.7,4.6,146.9,146.9,0,0,1,17.8,5.4,28.7,28.7,0,0,1,11.3,7.8c3.2,3.6,4.7,8.3,4.7,14.3a23.4,23.4,0,0,1-4,13.4c-2.6,4-6.7,7.3-12.1,9.7s-12.3,3.6-20.3,3.6A59.8,59.8,0,0,1,1660.7,536.4Z" fill="#e19544"/></g></g></svg>