<?xml version="1.0" encoding="utf-8"?>
<svg width="1745" height="541.4" viewBox="-14.509 -9.672 613.265 564.615" xmlns="http://www.w3.org/2000/svg">
  <g id="Capa_2" data-name="Capa 2">
    <g id="Capa_1-2" data-name="Capa 1">
      <polygon points="233 105.1 233 3.4 321 54.2 409.1 105.1 321 155.9 233 206.7 233 105.1" style="fill: rgb(229, 169, 132);"/>
      <polygon points="321 257.5 233 206.7 321 155.9 409.1 105.1 409.1 206.7 409.1 308.4 321 257.5" style="fill: rgb(230, 86, 12);"/>
      <polygon points="585.1 105.1 585.1 3.4 497.1 54.2 409.1 105.1 497.1 155.9 585.1 206.7 585.1 105.1" style="fill: rgb(234, 135, 101);"/>
      <polygon points="497.1 257.5 585.1 206.7 497.1 155.9 409.1 105.1 409.1 206.7 409.1 308.4 497.1 257.5" style="fill: rgb(219, 47, 15);"/>
      <polygon points="352.1 439.7 352.1 541.4 264.1 490.5 176.1 439.7 264.1 388.9 352.1 338.1 352.1 439.7" style="fill: rgb(142, 255, 156);"/>
      <polygon points="264.1 287.2 352.1 338.1 264.1 388.9 176.1 439.7 176.1 338.1 176.1 236.4 264.1 287.2" style="fill: rgb(14, 247, 18);"/>
      <polygon points="0 439.7 0 541.4 88 490.5 176.1 439.7 88 388.9 0 338.1 0 439.7" style="fill: rgb(13, 200, 16);"/>
      <polygon points="88 287.2 0 338.1 88 388.9 176.1 439.7 176.1 338.1 176.1 236.4 88 287.2" style="fill: rgb(14, 129, 16);"/>
      <text style="fill: rgb(51, 51, 51); font-family: Arial, sans-serif; font-size: 99.4466px; letter-spacing: 60px; line-height: 135.83px; stroke-width: 0px; white-space: pre;" transform="matrix(0.993016, 0, 0, 0.911526, -290.164673, 171.416321)" y="302.76300048828125"><tspan x="973.0989990234375" dy="1em">​</tspan><tspan x="973.0989990234375" dy="1em">​</tspan></text>
      <text style="fill: rgb(51, 51, 51); font-family: Arial, sans-serif; font-size: 27.1333px; font-weight: 700; white-space: pre;" transform="matrix(14.105194, 0, 0, 12.751863, -15488.661133, -2391.958496)" y="211.83799743652344"><tspan x="1143.3399658203125" dy="1em">​</tspan></text>
    </g>
  </g>
</svg>