<?xml version="1.0" encoding="utf-8"?>
<svg width="1745" height="541.4" viewBox="-7.739 0 600.689 549.139" xmlns="http://www.w3.org/2000/svg">
  <g id="Capa_2" data-name="Capa 2">
    <g id="Capa_1-2" data-name="Capa 1">
      <polygon points="233 105.1 233 3.4 321 54.2 409.1 105.1 321 155.9 233 206.7 233 105.1" style="fill: rgb(229, 169, 132);"/>
      <polygon points="321 257.5 233 206.7 321 155.9 409.1 105.1 409.1 206.7 409.1 308.4 321 257.5" style="fill: rgb(230, 86, 12);"/>
      <polygon points="585.1 105.1 585.1 3.4 497.1 54.2 409.1 105.1 497.1 155.9 585.1 206.7 585.1 105.1" style="fill: rgb(234, 135, 101);"/>
      <polygon points="497.1 257.5 585.1 206.7 497.1 155.9 409.1 105.1 409.1 206.7 409.1 308.4 497.1 257.5" style="fill: rgb(219, 47, 15);"/>
      <polygon points="352.1 439.7 352.1 541.4 264.1 490.5 176.1 439.7 264.1 388.9 352.1 338.1 352.1 439.7" style="fill: rgb(255, 253, 95);"/>
      <polygon points="264.1 287.2 352.1 338.1 264.1 388.9 176.1 439.7 176.1 338.1 176.1 236.4 264.1 287.2" style="fill: rgb(239, 247, 15);"/>
      <polygon points="0 439.7 0 541.4 88 490.5 176.1 439.7 88 388.9 0 338.1 0 439.7" style="fill: rgb(200, 196, 8);"/>
      <polygon points="88 287.2 0 338.1 88 388.9 176.1 439.7 176.1 338.1 176.1 236.4 88 287.2" style="fill: rgb(169, 156, 6);"/>
      <text style="fill: rgb(255, 255, 255); font-family: Arial, sans-serif; font-size: 20.7193px; font-weight: 700; line-height: 28.8585px; white-space: pre;" transform="matrix(14.399357, 0, 0, 13.129524, -15852.073242, -2492.250488)" y="211.83799743652344"><tspan x="1143.3399658203125" dy="1em">​</tspan></text>
      <text style="fill: rgb(51, 51, 51); font-family: Arial, sans-serif; font-size: 14px; white-space: pre;" x="1374.53" y="632.611"> </text>
    </g>
  </g>
</svg>