<?xml version="1.0" encoding="utf-8"?>
<svg xmlns="http://www.w3.org/2000/svg" width="512" height="201">
  <path fill="#c8102e"
    d="M123.9,100.5H6.3c-3.5,0-6.3-2.8-6.3-6.3V6.3C0,2.8,2.8,0,6.3,0h117.6c2.9,0,5.3,2.4,5.3,5.3v13.3c0,2.9-2.4,5.3-5.3,5.3h-76v14.4h56.9c2.9,0,5.3,2.4,5.3,5.3v13.3c0,2.9-2.4,5.3-5.3,5.3H47.9v14.4h76c2.9,0,5.3,2.4,5.3,5.3v13.3C129.2,98.1,126.8,100.5,123.9,100.5 M348.8,100.5h-37.2c-3,0-5.3-2.4-5.3-5.3V28.7h-4.8l-35.2,68.9c-0.9,1.8-2.7,2.9-4.7,2.9h-20.6c-2,0-3.8-1.1-4.7-2.9L201,28.7h-4.8v66.5c0,2.9-2.4,5.3-5.3,5.3h-27.6c-2.9,0-5.3-2.4-5.3-5.3V5.3c0-2.9,2.4-5.3,5.3-5.3h66c2,0,3.8,1.1,4.7,2.9L260.2,54L286,2.9c0.9-1.8,2.7-2.9,4.8-2.9h58c2.9,0,5.3,2.4,5.3,5.3v89.8C354.1,98.1,351.7,100.5,348.8,100.5zM506.7,201H5.3c-2.9,0-5.3-2.4-5.3-5.3v-61.1c0-2.9,2.4-5.3,5.3-5.3h501.4c2.9,0,5.3,2.4,5.3,5.3v61.1C512,198.6,509.6,201,506.7,201z M463.6,100.5h-37.2c-2.9,0-5.3-2.4-5.3-5.3V28.7h-37.7c-2.9,0-5.3-2.4-5.3-5.3V5.3c0-2.9,2.4-5.3,5.3-5.3h123.3c2.9,0,5.3,2.4,5.3,5.3v18.1c0,2.9-2.4,5.3-5.3,5.3h-37.7v66.5C468.9,98.1,466.6,100.5,463.6,100.5z" />
</svg>