<?xml version="1.0" encoding="utf-8"?>
<svg width="1745" height="541.4" viewBox="-20.313 -11.608 626.807 573.321" xmlns="http://www.w3.org/2000/svg">
  <g id="Capa_2" data-name="Capa 2">
    <g id="Capa_1-2" data-name="Capa 1">
      <polygon points="233 105.1 233 3.4 321 54.2 409.1 105.1 321 155.9 233 206.7 233 105.1" style="fill: rgb(115, 167, 229);"/>
      <polygon points="321 257.5 233 206.7 321 155.9 409.1 105.1 409.1 206.7 409.1 308.4 321 257.5" style="fill: rgb(12, 135, 230);"/>
      <polygon points="585.1 105.1 585.1 3.4 497.1 54.2 409.1 105.1 497.1 155.9 585.1 206.7 585.1 105.1" style="fill: rgb(101, 210, 234);"/>
      <polygon points="497.1 257.5 585.1 206.7 497.1 155.9 409.1 105.1 409.1 206.7 409.1 308.4 497.1 257.5" style="fill: rgb(8, 207, 219);"/>
      <polygon points="352.1 439.7 352.1 541.4 264.1 490.5 176.1 439.7 264.1 388.9 352.1 338.1 352.1 439.7" style="fill: rgb(142, 255, 156);"/>
      <polygon points="264.1 287.2 352.1 338.1 264.1 388.9 176.1 439.7 176.1 338.1 176.1 236.4 264.1 287.2" style="fill: rgb(14, 247, 18);"/>
      <polygon points="0 439.7 0 541.4 88 490.5 176.1 439.7 88 388.9 0 338.1 0 439.7" style="fill: rgb(13, 200, 16);"/>
      <polygon points="88 287.2 0 338.1 88 388.9 176.1 439.7 176.1 338.1 176.1 236.4 88 287.2" style="fill: rgb(14, 129, 16);"/>
      <text style="white-space: pre; fill: rgb(51, 51, 51); font-family: Arial, sans-serif; font-size: 27.1px;" x="1350.344" y="737.079">Escriba aquí su texto</text>
    </g>
  </g>
</svg>