<?xml version="1.0" encoding="utf-8"?>
<svg width="1745" height="541.4" viewBox="0 0 1745 541.4" xmlns="http://www.w3.org/2000/svg">
  <g id="Capa_2" data-name="Capa 2">
    <g id="Capa_1-2" data-name="Capa 1">
      <polygon points="233 105.1 233 3.4 321 54.2 409.1 105.1 321 155.9 233 206.7 233 105.1" style="fill: rgb(115, 167, 229);"/>
      <polygon points="321 257.5 233 206.7 321 155.9 409.1 105.1 409.1 206.7 409.1 308.4 321 257.5" style="fill: rgb(12, 135, 230);"/>
      <polygon points="585.1 105.1 585.1 3.4 497.1 54.2 409.1 105.1 497.1 155.9 585.1 206.7 585.1 105.1" style="fill: rgb(101, 210, 234);"/>
      <polygon points="497.1 257.5 585.1 206.7 497.1 155.9 409.1 105.1 409.1 206.7 409.1 308.4 497.1 257.5" style="fill: rgb(8, 207, 219);"/>
      <polygon points="352.1 439.7 352.1 541.4 264.1 490.5 176.1 439.7 264.1 388.9 352.1 338.1 352.1 439.7" style="fill: rgb(142, 255, 156);"/>
      <polygon points="264.1 287.2 352.1 338.1 264.1 388.9 176.1 439.7 176.1 338.1 176.1 236.4 264.1 287.2" style="fill: rgb(14, 247, 18);"/>
      <polygon points="0 439.7 0 541.4 88 490.5 176.1 439.7 88 388.9 0 338.1 0 439.7" style="fill: rgb(13, 200, 16);"/>
      <polygon points="88 287.2 0 338.1 88 388.9 176.1 439.7 176.1 338.1 176.1 236.4 88 287.2" style="fill: rgb(14, 129, 16);"/>
      <text style="fill: rgb(3, 5, 11); font-family: Arial, sans-serif; font-size: 99.4466px; letter-spacing: 60px; line-height: 135.83px; stroke-width: 0px; white-space: pre;" transform="matrix(1.205045, 0, 0, 0.911526, -496.490326, 171.416321)"><tspan x="973.099" y="302.763">STUDENT</tspan><tspan x="973.099" dy="1em">​</tspan><tspan x="973.099" dy="1em">​</tspan></text>
      <text style="fill: rgb(14, 14, 14); font-family: Arial, sans-serif; font-size: 18.1934px; font-weight: 700; line-height: 29.1095px; white-space: pre;" transform="matrix(14.105194, 0, 0, 15.982776, -15488.661133, -3088.946533)" x="1143.34" y="211.838">ENERGY</text>
    </g>
  </g>
</svg>